<svg width="36" height="25" viewBox="0 0 36 25" fill="none" xmlns="http://www.w3.org/2000/svg">
<path d="M0.384 25V0.52H7.836C9.66 0.52 11.1 0.783999 12.156 1.312C13.236 1.84 14.004 2.584 14.46 3.544C14.94 4.504 15.18 5.632 15.18 6.928V7.936C15.18 9.832 14.364 11.284 12.732 12.292C13.884 12.748 14.76 13.408 15.36 14.272C15.96 15.136 16.26 16.168 16.26 17.368V18.376C16.26 19.696 16.02 20.86 15.54 21.868C15.06 22.852 14.268 23.62 13.164 24.172C12.06 24.724 10.584 25 8.736 25H0.384ZM7.836 4.48H4.704V10.6H7.836C8.796 10.6 9.516 10.384 9.996 9.952C10.5 9.496 10.752 8.884 10.752 8.116V6.928C10.752 6.16 10.5 5.56 9.996 5.128C9.516 4.696 8.796 4.48 7.836 4.48ZM8.736 14.56H4.704V21.04H8.736C9.744 21.04 10.512 20.8 11.04 20.32C11.568 19.84 11.832 19.192 11.832 18.376V17.188C11.832 16.372 11.568 15.736 11.04 15.28C10.512 14.8 9.744 14.56 8.736 14.56ZM35.6266 20.86V25H21.4426V0.52H35.2666V4.66H25.7626V10.528H34.1866V14.668H25.7626V20.86H35.6266Z" fill="#CC0000"/>
</svg>
